HIERARCHY
ROOT Hips
{
	OFFSET	0.00	0.00	0.00
	CHANNELS 6 Xposition Yposition Zposition Zrotation Xrotation Yrotation
	JOINT LeftUpLeg
	{
		OFFSET	 0.126116	-0.014019	-0.065224
		CHANNELS 3 Zrotation Xrotation Yrotation
		JOINT LeftLeg
		{
			OFFSET	 0.000000	 0.000000	 0.569914
			CHANNELS 3 Zrotation Xrotation Yrotation
			JOINT LeftFoot
			{
				OFFSET	 0.000000	 0.000000	 0.544423
				CHANNELS 3 Zrotation Xrotation Yrotation
				JOINT LeftToeBase
				{
					OFFSET	 0.000000	 0.000000	 0.207117
					CHANNELS 3 Zrotation Xrotation Yrotation
					End Site
					{
						OFFSET	 0.000000	 0.000000	 0.207117
					}
				}
			}
		}
	}
	JOINT RightUpLeg
	{
		OFFSET	-0.124023	-0.008373	-0.065224
		CHANNELS 3 Zrotation Xrotation Yrotation
		JOINT RightLeg
		{
			OFFSET	 0.000000	 0.000000	 0.570047
			CHANNELS 3 Zrotation Xrotation Yrotation
			JOINT RightFoot
			{
				OFFSET	 0.000000	 0.000000	 0.544354
				CHANNELS 3 Zrotation Xrotation Yrotation
				JOINT RightToeBase
				{
					OFFSET	 0.000000	 0.000000	 0.207540
					CHANNELS 3 Zrotation Xrotation Yrotation
					End Site
					{
						OFFSET	 0.000000	 0.000000	 0.207540
					}
				}
			}
		}
	}
	JOINT Spine
	{
		OFFSET	 0.000184	-0.007763	 0.117403
		CHANNELS 3 Zrotation Xrotation Yrotation
		JOINT Spine1
		{
			OFFSET	 0.000000	 0.000000	 0.137269
			CHANNELS 3 Zrotation Xrotation Yrotation
			JOINT Spine2
			{
				OFFSET	 0.000000	 0.000000	 0.156879
				CHANNELS 3 Zrotation Xrotation Yrotation
				JOINT LeftShoulder
				{
					OFFSET	 0.080501	-0.002496	 0.160144
					CHANNELS 3 Zrotation Xrotation Yrotation
					JOINT LeftArm
					{
						OFFSET	 0.000000	 0.000000	 0.164363
						CHANNELS 3 Zrotation Xrotation Yrotation
						JOINT LeftForeArm
						{
							OFFSET	 0.000000	 0.000000	 0.364576
							CHANNELS 3 Zrotation Xrotation Yrotation
							JOINT LeftHand
							{
								OFFSET	 0.000000	 0.000000	 0.360812
								CHANNELS 3 Zrotation Xrotation Yrotation
								JOINT LeftHandIndex1
								{
									OFFSET	 0.000000	 0.000000	 0.086006
									CHANNELS 3 Zrotation Xrotation Yrotation
									JOINT LeftHandIndex2
									{
										OFFSET	 0.000000	 0.000000	 0.047236
										CHANNELS 3 Zrotation Xrotation Yrotation
										JOINT LeftHandIndex3
										{
											OFFSET	-0.004284	-0.000551	 0.038166
											CHANNELS 3 Zrotation Xrotation Yrotation
											End Site
											{
												OFFSET	-0.004284	-0.000551	 0.038166
											}
										}
									}
								}
							}
						}
					}
				}
				JOINT Neck
				{
					OFFSET	 0.000000	 0.000000	 0.176489
					CHANNELS 3 Zrotation Xrotation Yrotation
					JOINT Head
					{
						OFFSET	 0.000000	-0.001747	 0.077940
						CHANNELS 3 Zrotation Xrotation Yrotation
						End Site
						{
							OFFSET	 0.000000	-0.001747	 0.077940
						}
					}
				}
				JOINT RightShoulder
				{
					OFFSET	-0.080363	 0.000306	 0.159706
					CHANNELS 3 Zrotation Xrotation Yrotation
					JOINT RightArm
					{
						OFFSET	 0.000000	 0.000000	 0.164196
						CHANNELS 3 Zrotation Xrotation Yrotation
						JOINT RightForeArm
						{
							OFFSET	 0.000000	 0.000000	 0.365611
							CHANNELS 3 Zrotation Xrotation Yrotation
							JOINT RightHand
							{
								OFFSET	 0.000000	 0.000000	 0.360648
								CHANNELS 3 Zrotation Xrotation Yrotation
								JOINT RightHandIndex1
								{
									OFFSET	 0.000000	 0.000000	 0.069977
									CHANNELS 3 Zrotation Xrotation Yrotation
									JOINT RightHandIndex2
									{
										OFFSET	 0.000000	 0.000000	 0.052305
										CHANNELS 3 Zrotation Xrotation Yrotation
										JOINT RightHandIndex3
										{
											OFFSET	 0.009002	-0.000782	 0.042196
											CHANNELS 3 Zrotation Xrotation Yrotation
											End Site
											{
												OFFSET	 0.009002	-0.000782	 0.042196
											}
										}
									}
								}
							}
						}
					}
				}
			}
		}
	}
}
MOTION
Frames:    9
Frame Time: 0.03333334
-0.000306	 0.046620	 1.275147	-0.072399	 2.753421	 0.502942	 14.029380	-6.399281	 177.354100	 2.207377	-12.345930	 0.561406	-0.270647	 69.991890	 0.178633	-2.385833	 28.452750	 0.000004	-6.514568	-5.895943	-177.593400	-0.791069	-10.911720	 0.825959	 4.969482	 69.135190	 1.374066	 2.384659	 28.388700	-0.000001	-13.598320	 6.612757	 1.396671	-3.122118	-3.230069	-0.077992	 9.610946	 6.561901	-0.742307	-91.090900	 69.255200	-177.647900	-8.296344	 3.976342	-25.292480	 22.410250	 0.027329	-2.479031	-10.787450	-25.310550	-5.444547	-2.027600	 6.559038	 9.033609	-5.188889	 0.308190	 3.541030	-5.234859	 0.342567	 0.430617	 4.535120	 19.178750	-7.128106	 4.825960	-14.725530	 2.221504	 88.907480	 67.950700	 177.151300	 8.167750	 9.407528	 10.547140	-23.725270	-6.093808	 22.644430	 8.269601	-25.041420	 7.228990	 1.803333	 3.979147	-15.098590	 4.898592	 3.004813	-9.310344	 5.224449	 0.395017	 2.014677
-0.000804	 0.052146	 1.274270	-0.024381	 3.483246	 0.582377	 14.294270	-7.739309	 177.479900	 2.159561	-12.815010	 0.571756	 0.633982	 69.870130	-0.768805	-2.385833	 28.452750	 0.000004	-6.949736	-7.125424	-177.841200	-0.774185	-11.224290	 0.852623	 4.151777	 68.991920	 2.273662	 2.384659	 28.388700	-0.000001	-18.592690	 7.078350	 1.462204	-3.147351	-3.645333	 0.003172	 9.575200	 7.741305	-0.949527	-90.957370	 68.346840	-177.369400	-6.722209	 5.753115	-28.030860	 19.442460	 0.288213	-3.882366	-11.110270	-27.776450	-6.741023	-2.027600	 6.559038	 9.033609	-5.188889	 0.308190	 3.541030	-5.234859	 0.342567	 0.430617	 4.705409	 21.745720	-7.910833	 5.121453	-16.801620	 2.337205	 88.690570	 66.456800	 176.763200	 6.631557	 11.282350	 12.045320	-21.452490	-5.090899	 24.655170	 8.133308	-26.911870	 7.578773	 1.803333	 3.979147	-15.098590	 4.898592	 3.004813	-9.310344	 5.224449	 0.395017	 2.014677
-0.001575	 0.060314	 1.272636	 0.050045	 4.511575	 0.694483	 14.527780	-10.127750	 177.664400	 2.187188	-14.475790	 0.652450	 1.916696	 70.245400	-2.245511	-2.385833	 28.452760	 0.000004	-7.525232	-9.151052	-178.245100	-0.764184	-12.226120	 0.929732	 3.034149	 69.040280	 3.505597	 2.384659	 28.388700	-0.000001	-24.147890	 7.656041	 1.513543	-3.043013	-3.109175	 0.251089	 9.320683	 8.606133	-1.159770	-90.823580	 67.400720	-177.121800	-4.991416	 8.045527	-31.798580	 15.825350	 0.761361	-5.531094	-11.973260	-30.732420	-8.743688	-2.027600	 6.559038	 9.033609	-5.188889	 0.308190	 3.541030	-5.234859	 0.342567	 0.430617	 4.759294	 24.581420	-8.719653	 5.454667	-19.202770	 2.533754	 88.430850	 64.641620	 176.355300	 4.579493	 13.570190	 14.332190	-18.692450	-3.661933	 27.100730	 8.110824	-29.161890	 8.271622	 1.803333	 3.979147	-15.098590	 4.898592	 3.004813	-9.310344	 5.224449	 0.395017	 2.014677
-0.002599	 0.072644	 1.271628	 0.173845	 6.258222	 0.835508	 14.781750	-13.454670	 178.082300	 2.180431	-15.983310	 0.715549	 4.136143	 70.299220	-4.735034	-2.385832	 28.452790	-0.000001	-8.381643	-11.871510	-178.878900	-1.229539	-12.541600	 0.851779	 1.403557	 68.532370	 5.840190	 2.384659	 28.388700	-0.000001	-30.042550	 8.337507	 1.500251	-2.748227	-1.711479	 0.688313	 8.632483	 9.132063	-1.451156	-90.838900	 65.741130	-177.417800	-2.927548	 9.610780	-36.282940	 10.044920	 1.569867	-7.464854	-14.874120	-33.786300	-12.190920	-2.027600	 6.559038	 9.033609	-5.188889	 0.308190	 3.541030	-5.234859	 0.342567	 0.430617	 4.318706	 26.336870	-8.824900	 5.447903	-20.967530	 2.436288	 88.386960	 62.174150	 176.609600	 1.318475	 14.816260	 16.629800	-14.693690	-1.487956	 31.361770	 8.593665	-31.383730	 10.062200	 1.803333	 3.979147	-15.098590	 4.898592	 3.004813	-9.310344	 5.224449	 0.395017	 2.014677
-0.003217	 0.085197	 1.270235	 0.426643	 8.190195	 0.886390	 14.823820	-16.852850	 178.670300	 2.099986	-17.308080	 0.749131	 6.541654	 70.023500	-7.400532	-2.385833	 28.452760	 0.000004	-9.193994	-15.007660	-179.503400	-1.437733	-13.351110	 0.857505	-0.391910	 68.215030	 8.117036	 2.384659	 28.388700	-0.000001	-34.266370	 8.831264	 1.402445	-2.427896	-0.606487	 0.978180	 7.844866	 9.317286	-1.513317	-91.350310	 65.017690	-178.867700	-1.370156	 11.344940	-38.790110	 5.825429	 2.430001	-9.021419	-17.656680	-35.487950	-15.334820	-2.027600	 6.559038	 9.033609	-5.188889	 0.308190	 3.541030	-5.234859	 0.342567	 0.430617	 3.849685	 26.857750	-8.767026	 5.193150	-21.875490	 2.360761	 88.854310	 61.189790	 177.823900	-1.851930	 16.761300	 17.926580	-11.793550	 0.631555	 34.642930	 9.155811	-33.037820	 11.722830	 1.803333	 3.979147	-15.098590	 4.898592	 3.004813	-9.310344	 5.224449	 0.395017	 2.014677
-0.004297	 0.098071	 1.267920	 0.649542	 10.346680	 0.899221	 14.863940	-20.486960	 179.314100	 2.076628	-18.856840	 0.806262	 9.177894	 69.960590	-10.405470	-2.385833	 28.452760	 0.000004	-9.908786	-18.733330	 179.829700	-1.610230	-15.160960	 0.925886	-2.387941	 68.576640	 10.611960	 2.384659	 28.388700	-0.000001	-37.447330	 9.326543	 1.301276	-2.032796	 0.925398	 1.202098	 6.930011	 9.076260	-1.338764	-92.071670	 64.907790	 179.218100	-0.428709	 12.837150	-40.481980	 2.656765	 3.394825	-10.437670	-19.984170	-36.680370	-18.027360	-2.027600	 6.559038	 9.033609	-5.188889	 0.308190	 3.541030	-5.234859	 0.342567	 0.430617	 3.396192	 26.235630	-8.858843	 4.711287	-22.101530	 2.180729	 89.544980	 60.585530	 179.455100	-4.951503	 18.836830	 19.382800	-9.033919	 3.036667	 37.873450	 10.235110	-34.521910	 13.466500	 1.803333	 3.979147	-15.098590	 4.898592	 3.004813	-9.310344	 5.224449	 0.395017	 2.014677
-0.006062	 0.110214	 1.266022	 1.023024	 13.001540	 0.927286	 14.680940	-24.198110	 179.944100	 2.259706	-19.892030	 0.911176	 11.700540	 69.781070	-13.529540	-2.385832	 28.452790	-0.000001	-10.764850	-22.696390	 179.041700	-1.655024	-17.041200	 1.024305	-4.970913	 69.161540	 13.632080	 2.384659	 28.388700	-0.000001	-39.536590	 9.664307	 1.174907	-1.677189	 2.981781	 1.341236	 5.872891	 8.219172	-1.056160	-92.847430	 65.175360	 177.130300	-0.031628	 13.618620	-41.412810	 0.337801	 4.418200	-11.693050	-21.690320	-37.398860	-20.137360	-2.027600	 6.559038	 9.033609	-5.188889	 0.308190	 3.541030	-5.234859	 0.342567	 0.430617	 2.993589	 24.992650	-8.943963	 4.040165	-21.975060	 1.900066	 90.350720	 60.302220	-178.705500	-7.894342	 20.689440	 20.841260	-6.567620	 5.678063	 41.911580	 11.723440	-35.663120	 15.248020	 1.803333	 3.979147	-15.098590	 4.898592	 3.004813	-9.310344	 5.224449	 0.395017	 2.014677
-0.009142	 0.124922	 1.264714	 2.098505	 16.872570	 1.039167	 13.585220	-29.301400	-179.497200	 2.953962	-20.626830	 1.188563	 13.880450	 68.876200	-16.913560	-2.385833	 28.452760	 0.000004	-12.442720	-27.505090	 177.574700	-1.239779	-18.144590	 1.218249	-8.715243	 68.816900	 17.572840	 2.384659	 28.388700	-0.000001	-40.685270	 9.518049	 0.898560	-1.593934	 4.407681	 0.993186	 4.586967	 6.914016	-0.883163	-93.569830	 65.320200	 175.162800	 0.587739	 13.483920	-41.988340	-1.832217	 5.474549	-12.794400	-22.964090	-37.396280	-21.778540	-2.027600	 6.559038	 9.033609	-5.188889	 0.308190	 3.541030	-5.234859	 0.342567	 0.430617	 2.659131	 24.373690	-8.461003	 3.212189	-22.298620	 1.573856	 91.184990	 60.592040	-176.776000	-10.795880	 22.267570	 22.789110	-4.553645	 8.409366	 45.385560	 13.229900	-36.071030	 17.059180	 1.803333	 3.979147	-15.098590	 4.898592	 3.004813	-9.310344	 5.224449	 0.395017	 2.014677
-0.012763	 0.141835	 1.262076	 3.335250	 20.381340	 0.913795	 12.219500	-34.378940	-178.986300	 3.579646	-21.386780	 1.459311	 14.789010	 67.147310	-18.988410	-2.385833	 28.452760	 0.000004	-14.202650	-32.478080	 176.035400	-1.656795	-19.579990	 1.170691	-10.920160	 67.569530	 20.916960	 2.384659	 28.388700	-0.000001	-40.635760	 9.445350	 0.592268	-1.544203	 5.590856	 0.651579	 3.245723	 5.804043	-0.937893	-94.100920	 65.836070	 173.569700	 0.919498	 13.449470	-43.013900	-3.686677	 6.507142	-13.727420	-24.302750	-37.374220	-23.306010	-2.027600	 6.559038	 9.033609	-5.188889	 0.308190	 3.541030	-5.234859	 0.342567	 0.430617	 2.349793	 23.925360	-7.382212	 2.136803	-22.810790	 0.862701	 91.903050	 61.249540	-175.017300	-12.660120	 23.579130	 25.461440	-3.197031	 10.673100	 47.231240	 14.634190	-36.006020	 18.551150	 1.803333	 3.979147	-15.098590	 4.898592	 3.004813	-9.310344	 5.224449	 0.395017	 2.014677
